<svg xmlns="http://www.w3.org/2000/svg" width="100" height="100"><circle fill="#050505" cx="50" cy="50" r="50"/><path fill="#FFF" d="M75 47.5c0 13.8-11.2 25-25 25s-25-11.2-25-25"/><path fill="none" stroke="#FFF" stroke-width="2" stroke-miterlimit="10" d="M25 72.5h50m-2.5-21.2h5c2.7 0 3.5 2.3 1.7 5.2s-5.5 5.2-8.3 5.2h-5"/><path fill="#FFF" d="M33.5 2.5c0 9.6-2.4 20.5 7.9 25.6 4.1 2 9 1.5 13.5 1.5 4 0 14.4.3 15.2 5.8v-5c-1 7-11.6 5.4-16.4 6.5-4.6 1-3.6 4.3-3.6 8.1 0 2.8.1 2.8.1 0v-3.2 2.5c2-7 19.6.9 20-9.1.2-5.8-.8-8.1-7-9.8-7.2-2-14.7.4-21.7-2.4-9.1-3.5-8-12.6-8-20.5 0-2.8 0-2.8 0 0z"/></svg>