<svg xmlns="http://www.w3.org/2000/svg" width="100" height="100"><circle fill="#161616" cx="50" cy="50" r="50"/><path fill="#FFF" d="M33.5 2.5c0 3.5-.1 7 0 10.5.2 5 6.3 6.9 10.3 7.7 3.6.8 7.6.4 11.2.4 3 0 14-.4 15 3.8v-5c-1.2 5.2-12.6 3.7-16.4 4.3-4.3.6-3.6 2.5-3.6 6.2 0 2.8.1 2.8.1 0v-2.1 2.5c.9-2.2 6.3-1.9 8.2-2.1 3.7-.2 9.1.3 11.6-3.1 1.4-1.9.3-6.4-1.6-7.5-7.6-4.2-33.4 2.7-34.7-10.1v2.5c-.1-2.6-.1-5.3-.1-8 0-2.8 0-2.8 0 0zM20 70c0-16.6 13.4-30 30-30s30 13.4 30 30"/><path fill="none" stroke="#FFF" stroke-width="4" stroke-miterlimit="10" d="M20 74h60"/><path fill="none" stroke="#FFF" stroke-width="2" stroke-miterlimit="10" d="M47 37h6"/><path fill="none" stroke="#161616" stroke-width="3" stroke-miterlimit="10" d="M54 47c11 0 20 9 20 20"/></svg>