<?xml version="1.0" standalone="no"?>
<!DOCTYPE svg PUBLIC "-//W3C//DTD SVG 20010904//EN"
 "http://www.w3.org/TR/2001/REC-SVG-20010904/DTD/svg10.dtd">
<svg version="1.0" xmlns="http://www.w3.org/2000/svg"
 width="700.000000pt" height="700.000000pt" viewBox="0 0 700.000000 700.000000"
 preserveAspectRatio="xMidYMid meet">
<metadata>
Created by potrace 1.11, written by Peter Selinger 2001-2013
</metadata>
<g transform="translate(0.000000,700.000000) scale(0.100000,-0.100000)"
fill="#000000" stroke="none">
<path d="M3285 6994 c-203 -20 -276 -28 -375 -45 -610 -105 -1195 -376 -1665
-772 -95 -81 -310 -294 -394 -392 -468 -542 -742 -1176 -833 -1925 -17 -137
-17 -583 0 -720 69 -569 227 -1028 514 -1491 145 -236 311 -440 525 -649 204
-200 371 -332 592 -468 463 -287 922 -445 1491 -514 137 -17 583 -17 720 0
569 69 1028 227 1491 514 360 222 692 528 958 882 323 430 549 960 640 1501
38 223 46 327 46 585 0 258 -8 362 -46 585 -105 627 -382 1216 -800 1700 -84
98 -299 311 -394 392 -518 437 -1148 710 -1845 798 -117 15 -536 28 -625 19z
m-900 -694 c53 -148 202 -276 395 -339 231 -76 426 -97 1035 -111 463 -11 606
-20 757 -51 176 -35 246 -75 301 -172 61 -111 81 -289 40 -378 -49 -109 -170
-186 -348 -223 -85 -17 -160 -23 -465 -36 -265 -12 -381 -24 -457 -47 -57 -18
-120 -63 -133 -97 -13 -31 -12 261 0 306 6 21 23 52 37 69 59 69 147 87 504
98 273 10 411 21 509 42 61 13 170 51 170 59 0 12 -121 48 -220 64 -52 9 -106
19 -120 22 -14 3 -293 9 -620 13 l-595 7 -124 28 c-349 77 -577 205 -659 368
-42 84 -52 158 -51 373 1 177 1 179 14 115 7 -36 21 -85 30 -110z m1325 -1890
l0 -70 -210 0 -210 0 0 70 0 70 210 0 210 0 0 -70z m-4 -221 c906 -89 1661
-766 1848 -1655 25 -120 46 -297 46 -386 l0 -48 -2100 0 -2100 0 0 48 c0 89
21 266 46 386 118 562 472 1060 967 1360 392 237 841 340 1293 295z m1894
-2369 l0 -140 -2100 0 -2100 0 0 140 0 140 2100 0 2100 0 0 -140z"/>
<path d="M3780 3707 l0 -104 103 -6 c427 -26 832 -293 1041 -687 83 -157 133
-329 143 -497 l6 -103 104 0 103 0 0 73 c-1 369 -210 798 -517 1062 -260 223
-612 364 -910 365 l-73 0 0 -103z"/>
</g>
</svg>
